<svg width="18" height="20" viewBox="0 0 18 20" fill="none" xmlns="http://www.w3.org/2000/svg">
<path d="M9 2C11.2091 2 13 3.79086 13 6C13 8.20914 11.2091 10 9 10C6.79086 10 5 8.20914 5 6C5 3.79086 6.79086 2 9 2ZM15 6C15 2.68629 12.3137 0 9 0C5.68629 0 3 2.68629 3 6C3 9.31371 5.68629 12 9 12C12.3137 12 15 9.31371 15 6ZM13 16C14.6569 16 16 17.3431 16 19C16 19.5523 16.4477 20 17 20C17.5523 20 18 19.5523 18 19C18 16.2386 15.7614 14 13 14H5C2.23858 14 0 16.2386 0 19C0 19.5523 0.447716 20 1 20C1.55228 20 2 19.5523 2 19C2 17.3431 3.34315 16 5 16H13Z" fill="#4F4F4F"/>
</svg>
