<svg width="21" height="14" viewBox="0 0 21 14" fill="none" xmlns="http://www.w3.org/2000/svg">
<path d="M0.382812 13.0048C0.382812 13.5544 0.828377 14 1.37801 14H9.38762C9.93725 14 10.3828 13.5544 10.3828 13.0048C10.3828 12.4552 9.93725 12.0096 9.38762 12.0096H1.37801C0.828377 12.0096 0.382812 12.4552 0.382812 13.0048Z" fill="white"/>
<path d="M0.382812 7.00024C0.382812 7.54987 0.828377 7.99544 1.37801 7.99544H19.3876C19.9372 7.99544 20.3828 7.54987 20.3828 7.00024C20.3828 6.45061 19.9373 6.00505 19.3876 6.00505H1.37801C0.828377 6.00505 0.382812 6.45061 0.382812 7.00024Z" fill="white"/>
<path d="M1.37801 1.99039C0.828377 1.99039 0.382812 1.54482 0.382812 0.995193C0.382812 0.445562 0.828377 0 1.37801 0H13.3876C13.9372 0 14.3828 0.445562 14.3828 0.995193C14.3828 1.54482 13.9372 1.99039 13.3876 1.99039H1.37801Z" fill="white"/>
</svg>
