<svg width="100" height="100" viewBox="0 0 100 100" fill="none" xmlns="http://www.w3.org/2000/svg">
<rect width="100" height="100" rx="10" fill="#EBFAEB"/>
<path d="M76.635 43.623C75.571 42.524 75.081 41.026 75.298 39.507L75.494 38.121C76.082 33.97 73.31 30.148 69.18 29.427L67.801 29.182C66.296 28.916 65.015 27.992 64.301 26.641L63.643 25.409C61.676 21.706 57.189 20.243 53.423 22.091L52.163 22.7C50.791 23.372 49.209 23.372 47.837 22.7L46.584 22.084C42.818 20.243 38.331 21.699 36.364 25.402L35.706 26.634C34.985 27.985 33.711 28.916 32.206 29.175L30.827 29.42C26.697 30.141 23.925 33.963 24.513 38.114L24.709 39.5C24.926 41.019 24.436 42.517 23.372 43.616L22.399 44.617C19.48 47.627 19.48 52.352 22.399 55.362L23.372 56.37C24.436 57.469 24.926 58.967 24.709 60.486L24.513 61.872C23.925 66.023 26.697 69.845 30.827 70.566L32.206 70.811C33.711 71.077 34.992 72.001 35.706 73.352L36.364 74.584C37.757 77.202 40.403 78.7 43.175 78.7C44.316 78.7 45.485 78.441 46.584 77.902L47.837 77.3C49.209 76.628 50.791 76.628 52.163 77.3L53.416 77.916C57.182 79.757 61.669 78.301 63.636 74.598L64.294 73.366C65.015 72.015 66.289 71.084 67.794 70.825L69.173 70.58C73.303 69.859 76.075 66.037 75.487 61.886L75.291 60.5C75.074 58.981 75.564 57.483 76.628 56.384L77.601 55.383C80.52 52.373 80.52 47.648 77.601 44.638L76.635 43.623ZM75.592 53.43L74.619 54.431C72.953 56.153 72.183 58.512 72.519 60.885L72.715 62.271C73.093 64.917 71.322 67.353 68.69 67.815L67.311 68.06C64.945 68.473 62.943 69.929 61.823 72.05L61.165 73.282C59.912 75.641 57.049 76.579 54.648 75.403L53.395 74.787C51.239 73.73 48.761 73.73 46.605 74.787L45.352 75.403C42.951 76.579 40.088 75.648 38.835 73.282L38.177 72.05C37.05 69.929 35.048 68.473 32.689 68.06L31.31 67.815C28.678 67.353 26.907 64.917 27.285 62.271L27.481 60.885C27.817 58.505 27.054 56.153 25.381 54.431L24.408 53.423C22.546 51.498 22.546 48.495 24.408 46.57L25.381 45.569C27.047 43.847 27.817 41.488 27.481 39.115L27.285 37.729C26.907 35.083 28.678 32.647 31.31 32.185L32.689 31.94C35.055 31.527 37.057 30.071 38.177 27.95L38.835 26.718C39.724 25.045 41.411 24.093 43.175 24.093C43.903 24.093 44.645 24.254 45.352 24.597L46.605 25.213C48.761 26.27 51.239 26.27 53.395 25.213L54.648 24.597C57.049 23.421 59.912 24.352 61.165 26.718L61.823 27.95C62.95 30.071 64.952 31.527 67.311 31.94L68.69 32.185C71.322 32.647 73.093 35.083 72.715 37.729L72.519 39.115C72.183 41.495 72.946 43.847 74.619 45.569L75.592 46.577C77.454 48.495 77.454 51.505 75.592 53.43Z" fill="#27AE60"/>
<path d="M61.137 38.863C60.591 38.317 59.702 38.317 59.156 38.863L38.863 59.156C38.317 59.702 38.317 60.591 38.863 61.137C39.136 61.41 39.493 61.55 39.85 61.55C40.207 61.55 40.564 61.41 40.837 61.137L61.13 40.844C61.683 40.298 61.683 39.409 61.137 38.863Z" fill="#27AE60"/>
<path d="M44.309 46.297C45.835 46.297 47.354 45.716 48.516 44.554C50.833 42.237 50.833 38.457 48.516 36.14C46.199 33.823 42.419 33.823 40.102 36.14C38.975 37.26 38.359 38.758 38.359 40.347C38.359 41.936 38.975 43.434 40.102 44.554C41.264 45.716 42.783 46.297 44.309 46.297ZM42.083 38.121C42.699 37.505 43.504 37.197 44.309 37.197C45.114 37.197 45.919 37.505 46.535 38.121C47.76 39.346 47.76 41.348 46.535 42.573C45.303 43.798 43.308 43.798 42.083 42.573C41.488 41.978 41.159 41.187 41.159 40.347C41.159 39.507 41.488 38.716 42.083 38.121Z" fill="#27AE60"/>
<path d="M51.484 55.446C49.167 57.763 49.167 61.543 51.484 63.86C52.646 65.022 54.165 65.603 55.691 65.603C57.217 65.603 58.736 65.022 59.898 63.86C61.025 62.733 61.641 61.242 61.641 59.653C61.641 58.064 61.025 56.566 59.898 55.446C57.581 53.122 53.808 53.122 51.484 55.446ZM57.917 61.879C56.692 63.104 54.69 63.104 53.465 61.879C52.24 60.654 52.24 58.652 53.465 57.427C54.081 56.811 54.886 56.503 55.691 56.503C56.496 56.503 57.301 56.811 57.917 57.427C58.512 58.022 58.841 58.813 58.841 59.653C58.841 60.493 58.512 61.284 57.917 61.879Z" fill="#27AE60"/>
</svg>
