<svg width="100" height="100" viewBox="0 0 100 100" fill="none" xmlns="http://www.w3.org/2000/svg">
<rect width="100" height="100" rx="10" fill="#EBFAEB"/>
<path d="M84.0297 24.6292L59.6938 17.2464C59.5651 17.2075 59.4313 17.1875 59.2969 17.1875H40.7031C40.5687 17.1875 40.4349 17.2075 40.3062 17.2464L15.9703 24.6292C15.394 24.804 15 25.3354 15 25.9375V44.2459C15 45.0009 15.6122 45.6131 16.3672 45.6131H26.4844V81.4453C26.4844 82.2003 27.0966 82.8125 27.8516 82.8125H43.8477C44.6026 82.8125 45.2148 82.2003 45.2148 81.4453C45.2148 80.6904 44.6026 80.0781 43.8477 80.0781H29.2188V23.4674L34.2259 21.9483C35.7981 29.3116 42.3221 34.6875 50 34.6875C57.6731 34.6875 64.2014 29.3101 65.7743 21.9485L70.7812 23.4674V80.0781H56.1523C55.3974 80.0781 54.7852 80.6904 54.7852 81.4453C54.7852 82.2003 55.3974 82.8125 56.1523 82.8125H72.1484C72.9034 82.8125 73.5156 82.2003 73.5156 81.4453V45.6131H83.6328C84.3878 45.6131 85 45.0009 85 44.2459V25.9375C85 25.3354 84.606 24.804 84.0297 24.6292ZM57.8092 19.9219C57.1593 23.6447 53.9061 26.4844 50 26.4844C46.0939 26.4844 42.8407 23.6447 42.1908 19.9219H57.8092ZM26.4844 42.8787H17.7344V26.9514L26.4844 24.2969V42.8787ZM50 31.9531C43.5459 31.9531 38.0762 27.3791 36.8561 21.1504L39.4903 20.3513C40.3472 25.3786 44.7322 29.2188 50 29.2188C55.2678 29.2188 59.6528 25.3786 60.5097 20.3513L63.1437 21.1504C61.9231 27.3777 56.4501 31.9531 50 31.9531ZM82.2656 42.8787H73.5156V24.2969L82.2656 26.9514V42.8787Z" fill="#27AE60"/>
<path d="M50 80.0781C49.6404 80.0781 49.2877 80.2243 49.0334 80.4787C48.7791 80.7331 48.6328 81.0857 48.6328 81.4453C48.6328 81.8049 48.779 82.1576 49.0334 82.4118C49.2877 82.6661 49.6404 82.8125 50 82.8125C50.3596 82.8125 50.7123 82.6662 50.9665 82.4118C51.2209 82.1576 51.3672 81.8049 51.3672 81.4453C51.3672 81.0857 51.2209 80.733 50.9665 80.4787C50.7123 80.2243 50.3596 80.0781 50 80.0781Z" fill="#27AE60"/>
<path d="M56.9682 63.4468C57.7666 62.8665 58.1587 61.9015 57.9915 60.9287L57.1778 56.1909L60.6191 52.8343C61.3258 52.1451 61.5752 51.1339 61.27 50.1952C60.9649 49.2566 60.1684 48.5855 59.1915 48.4436L54.4338 47.7537L52.3053 43.4434C51.8683 42.5584 50.9839 42.0089 49.997 42.0089H49.9964C49.0092 42.0092 48.125 42.5592 47.6881 43.4446L45.5617 47.756L40.8043 48.4485C39.8275 48.5908 39.0315 49.2624 38.7268 50.2012C38.422 51.1401 38.6721 52.1513 39.3791 52.8399L42.8223 56.1947L42.0109 60.933C41.8442 61.9059 42.2369 62.8706 43.0356 63.4505C43.4868 63.7781 44.0145 63.9445 44.5458 63.9445C44.9551 63.9445 45.3667 63.8456 45.7469 63.6456L50.0013 61.4075L54.2569 63.6434C55.1307 64.1024 56.1695 64.0275 56.9682 63.4468V63.4468ZM50.6369 58.6526C50.2386 58.4435 49.7628 58.4436 49.3643 58.6531L44.7607 61.0749L45.6387 55.9477C45.7147 55.5041 45.5675 55.0516 45.2452 54.7376L41.5192 51.1075L46.6667 50.3583C47.112 50.2935 47.4969 50.0137 47.6959 49.6101L49.9968 44.9448L52.3003 49.6088C52.4995 50.0123 52.8845 50.2919 53.3298 50.3565L58.4776 51.103L54.7538 54.735C54.4318 55.0491 54.2847 55.5017 54.361 55.9453L55.2416 61.0719L50.6369 58.6526Z" fill="#27AE60"/>
<path d="M50 66.7686C49.245 66.7686 48.6328 67.3808 48.6328 68.1357V70.5643C48.6328 71.3192 49.245 71.9315 50 71.9315C50.755 71.9315 51.3672 71.3192 51.3672 70.5643V68.1357C51.3672 67.3808 50.755 66.7686 50 66.7686Z" fill="#27AE60"/>
<path d="M61.7308 59.1318L64.0405 59.8822C64.1808 59.9277 64.3231 59.9495 64.4632 59.9495C65.0395 59.9495 65.5756 59.5821 65.7633 59.0043C65.9965 58.2863 65.6036 57.5149 64.8854 57.2815L62.5757 56.5311C61.8576 56.2983 61.0861 56.6906 60.8529 57.409C60.6196 58.127 61.0126 58.8984 61.7308 59.1318Z" fill="#27AE60"/>
<path d="M57.51 44.9119C57.9328 44.9119 58.3498 44.7164 58.6172 44.3482L60.0445 42.3836C60.4884 41.7727 60.353 40.9177 59.7421 40.4739C59.1315 40.0301 58.2762 40.1653 57.8324 40.7763L56.4051 42.741C55.9611 43.3518 56.0966 44.2069 56.7075 44.6507C56.9502 44.827 57.2313 44.9119 57.51 44.9119Z" fill="#27AE60"/>
<path d="M42.4898 44.9119C42.7685 44.9119 43.0498 44.827 43.2924 44.6506C43.9032 44.2068 44.0387 43.3518 43.5948 42.7409L42.1675 40.7762C41.7238 40.1653 40.8686 40.0299 40.2578 40.4738C39.6469 40.9176 39.5114 41.7727 39.9554 42.3835L41.3827 44.3482C41.6503 44.7163 42.0673 44.9119 42.4898 44.9119V44.9119Z" fill="#27AE60"/>
<path d="M37.4245 56.5311L35.1148 57.2816C34.3966 57.515 34.0037 58.2863 34.2369 59.0044C34.4246 59.5823 34.9606 59.9495 35.537 59.9495C35.6768 59.9495 35.8193 59.9278 35.9597 59.8822L38.2694 59.1318C38.9876 58.8984 39.3806 58.127 39.1473 57.409C38.9138 56.6907 38.1427 56.2979 37.4245 56.5311V56.5311Z" fill="#27AE60"/>
</svg>
