<svg width="100" height="100" viewBox="0 0 100 100" fill="none" xmlns="http://www.w3.org/2000/svg">
<rect width="100" height="100" rx="10" fill="#EBFAEB"/>
<path d="M83.2877 59.8765C82.2731 58.9381 80.9671 58.431 79.6367 58.3524C80.6943 55.5401 81.2315 52.5792 81.2315 49.5175C81.2315 44.1082 79.5462 38.9543 76.3576 34.6132C75.9068 33.9994 75.0437 33.8673 74.4301 34.3182C73.8164 34.7691 73.6843 35.6319 74.1351 36.2456C76.9737 40.1101 78.4739 44.6995 78.4739 49.5175C78.4739 52.8753 77.7505 56.0961 76.327 59.0994C75.9455 59.3132 75.5853 59.5714 75.2561 59.8758L65.9302 68.4883C65.7917 68.6164 65.1601 69.0324 62.8311 69.0324C62.8164 69.0324 62.8017 69.0324 62.7869 69.0324C59.1258 69.0225 53.5541 69.0126 49.3453 69.005L47.3601 69.0015C46.2918 69.0015 45.4227 68.2465 45.4227 67.3185C45.4227 66.4042 46.31 65.6316 47.3601 65.6316H56.1971C59.0166 65.6316 61.3105 63.4658 61.3105 60.8036C61.3105 60.5555 61.2904 60.3117 61.252 60.0735C63.449 59.086 64.925 56.8921 64.925 54.3815C64.925 50.9394 62.1428 48.1388 58.7229 48.1388H53.4037C51.483 48.1388 49.9206 46.5737 49.9206 44.6496C49.9206 42.7279 51.4831 41.1644 53.4037 41.1644H56.0309H56.0344H63.5462C64.3078 41.1644 64.925 40.5471 64.925 39.7856C64.925 39.0242 64.3078 38.4069 63.5462 38.4069H57.4166L57.4248 35.0879C57.4267 34.3263 56.8109 33.7076 56.0494 33.7057C56.0483 33.7057 56.0471 33.7057 56.046 33.7057C55.2861 33.7057 54.6692 34.3208 54.6672 35.0809L54.659 38.4069H53.4039C49.9627 38.4069 47.1631 41.2073 47.1631 44.6496C47.1631 48.0941 49.9628 50.8963 53.4039 50.8963H58.7231C60.5902 50.8963 62.1676 52.4923 62.1676 54.3815C62.1676 55.7945 61.282 57.0618 60.0152 57.5966C59.078 56.6029 57.7139 55.9754 56.1972 55.9754H34.5594C33.9324 53.8841 33.6145 51.7167 33.6145 49.5176C33.6145 47.7682 33.8146 46.0436 34.2086 44.3682C34.3737 44.4767 34.5401 44.5811 34.7079 44.6815C35.4668 45.1361 36.0543 45.3634 36.6426 45.3634C37.2305 45.3634 37.8189 45.1363 38.58 44.6822C41.3052 43.0534 43.6958 40.3475 45.6854 36.6393C47.1349 33.9362 48.0343 31.1404 48.3389 28.4401C50.8024 27.5358 53.3909 27.0765 56.0462 27.0765C59.2154 27.0765 62.2762 27.7237 65.1438 29C65.326 29.081 65.5163 29.1195 65.7037 29.1195C66.2317 29.1195 66.7355 28.8144 66.9641 28.3009C67.2736 27.6053 66.9608 26.7903 66.265 26.4806C63.0423 25.0463 59.6041 24.3191 56.0461 24.3191C53.4284 24.3191 50.8678 24.7172 48.408 25.5019C48.2135 24.0036 47.4394 23.5058 46.2733 22.8782L37.2992 18.0354C36.8906 17.8149 36.3983 17.8149 35.9896 18.0354L27.0105 22.8806C25.669 23.6026 24.8461 24.1516 24.8287 26.2516C24.8 29.6134 25.7583 33.2054 27.5997 36.6394C28.8621 38.9921 30.2875 40.94 31.8581 42.4674C31.1939 44.7434 30.8568 47.1105 30.8568 49.5175C30.8568 51.8297 31.1696 54.1112 31.788 56.3207C30.606 56.6264 29.4869 57.1286 28.4855 57.8002C28.0432 55.6694 26.0543 54.0568 23.6737 54.0568H19.9042C17.2001 54.0568 15 56.1374 15 58.695V77.085C15 79.6405 17.2001 81.7194 19.9042 81.7194H23.6737C26.3779 81.7194 28.5779 79.6405 28.5779 77.085V77.0558L37.3159 80.9747C37.3452 80.9878 37.375 80.9999 37.4051 81.0108C40.1128 82.005 43.569 82.0727 53.17 82.1223C60.4389 82.1301 61.3883 82.1301 62.7676 82.1301C66.2389 82.1301 68.0141 81.8155 69.9921 79.8691C74.1073 76.0648 78.2229 72.2639 82.3412 68.4603L83.2862 67.5875C84.3913 66.5681 84.9999 65.1984 84.9999 63.7313C85 62.2643 84.3915 60.8947 83.2877 59.8765ZM25.8205 77.085C25.8205 78.12 24.8576 78.9619 23.6738 78.9619H19.9042C18.7205 78.9619 17.7576 78.12 17.7576 77.085V58.695C17.7576 57.6755 18.7406 56.8143 19.9042 56.8143H23.6737C24.8373 56.8143 25.8203 57.6756 25.8203 58.695V77.085H25.8205ZM30.0299 35.3358C28.4065 32.3087 27.5614 29.1755 27.5863 26.2746C27.5892 25.9227 27.6153 25.7671 27.6295 25.7078C27.7399 25.6196 28.0453 25.4551 28.3175 25.3086L36.6445 20.8152L44.9324 25.2876L44.9664 25.306C45.2389 25.4527 45.5447 25.6173 45.6556 25.7059C45.6698 25.7656 45.6958 25.9223 45.6987 26.2768C45.727 29.1695 44.8819 32.302 43.2551 35.3355C41.505 38.5975 39.456 40.9456 37.1659 42.3145C36.8606 42.4967 36.7129 42.5671 36.6433 42.5942C36.5741 42.567 36.4272 42.4967 36.1248 42.3157C36.1244 42.3154 36.1241 42.3151 36.1237 42.315C33.8613 40.9629 31.7541 38.5494 30.0299 35.3358ZM81.4161 65.5614L80.4705 66.4347C76.3464 70.2438 72.2253 74.0498 68.1042 77.8593C68.0928 77.8697 68.0817 77.8802 68.0709 77.891C66.9092 79.0389 66.0724 79.3726 62.7679 79.3726C61.3888 79.3726 60.4398 79.3726 53.1788 79.3648C44.3914 79.3193 40.7024 79.2675 38.3989 78.4379L28.5782 74.0333V61.3476C30.0347 59.7029 32.2137 58.7327 34.4983 58.7327H56.1973C57.1008 58.7327 57.8859 59.1827 58.2811 59.8404C58.2886 59.8542 58.2957 59.8682 58.3036 59.8816C58.4618 60.1597 58.5531 60.4721 58.5531 60.8035C58.5531 61.9452 57.4963 62.874 56.1973 62.874H47.3604C44.7715 62.874 42.6653 64.8677 42.6653 67.3184C42.6653 69.7669 44.7716 71.7589 47.3579 71.7589L49.3406 71.7624C53.5485 71.77 59.1193 71.7799 62.7803 71.7898C62.7971 71.7899 62.8136 71.7899 62.8302 71.7899C65.2801 71.7898 66.8612 71.3835 67.8021 70.5131L77.128 61.9008C78.29 60.826 80.2534 60.8259 81.4169 61.902C81.9494 62.3934 82.2427 63.0431 82.2427 63.7313C82.2424 64.4198 81.9491 65.0695 81.4161 65.5614Z" fill="#27AE60"/>
<path d="M71.012 32.3704C71.3648 32.3704 71.7177 32.2359 71.9869 31.9667C72.5254 31.4281 72.5254 30.5552 71.9869 30.0167L71.9831 30.0128C71.4447 29.4747 70.5735 29.4763 70.0351 30.0149C69.4966 30.5533 69.4986 31.4281 70.037 31.9668C70.3062 32.2359 70.6591 32.3704 71.012 32.3704Z" fill="#27AE60"/>
<path d="M36.0397 34.8626C36.3989 34.8626 36.7574 34.7232 37.0273 34.4463L41.8932 29.4544C42.4246 28.9091 42.4136 28.0361 41.8682 27.5047C41.323 26.9731 40.45 26.9842 39.9185 27.5296L35.9959 31.5539L34.6346 30.2797C34.0787 29.7593 33.2063 29.7879 32.6856 30.3442C32.1653 30.9001 32.1941 31.7726 32.75 32.293L35.0978 34.4906C35.3634 34.7391 35.7019 34.8626 36.0397 34.8626Z" fill="#27AE60"/>
</svg>
