<svg width="100" height="100" viewBox="0 0 100 100" fill="none" xmlns="http://www.w3.org/2000/svg">
<rect width="100" height="100" rx="10" fill="#EBFAEB"/>
<path d="M47.6562 63.2812H38.2812C37.4172 63.2812 36.7188 62.5828 36.7188 61.7188C36.7188 60.8547 37.4172 60.1562 38.2812 60.1562H47.6562C48.5203 60.1562 49.2188 60.8547 49.2188 61.7188C49.2188 62.5828 48.5203 63.2812 47.6562 63.2812Z" fill="#27AE60"/>
<path d="M38.2812 63.2812C37.4172 63.2812 36.7188 62.5828 36.7188 61.7188V57.0312C36.7188 56.1672 37.4172 55.4688 38.2812 55.4688C39.1453 55.4688 39.8438 56.1672 39.8438 57.0312V61.7188C39.8438 62.5828 39.1453 63.2812 38.2812 63.2812Z" fill="#27AE60"/>
<path d="M54.6875 56.25C52.5328 56.25 50.7812 54.4984 50.7812 52.3438C50.7812 51.4797 51.4797 50.7812 52.3438 50.7812C53.2078 50.7812 53.9062 51.4797 53.9062 52.3438C53.9062 52.7734 54.2578 53.125 54.6875 53.125C55.5516 53.125 56.25 53.8234 56.25 54.6875C56.25 55.5516 55.5516 56.25 54.6875 56.25Z" fill="#27AE60"/>
<path d="M61.7188 56.25H54.6875C53.8234 56.25 53.125 55.5516 53.125 54.6875C53.125 53.8234 53.8234 53.125 54.6875 53.125H61.7188C62.5828 53.125 63.2812 53.8234 63.2812 54.6875C63.2812 55.5516 62.5828 56.25 61.7188 56.25Z" fill="#27AE60"/>
<path d="M52.3438 53.9062C51.4797 53.9062 50.7812 53.2078 50.7812 52.3438V47.6562C50.7812 46.7922 51.4797 46.0938 52.3438 46.0938C53.2078 46.0938 53.9062 46.7922 53.9062 47.6562V52.3438C53.9062 53.2078 53.2078 53.9062 52.3438 53.9062Z" fill="#27AE60"/>
<path d="M61.7188 63.2812C60.8547 63.2812 60.1562 62.5828 60.1562 61.7188V47.6562C60.1562 46.7922 60.8547 46.0938 61.7188 46.0938C62.5828 46.0938 63.2812 46.7922 63.2812 47.6562V61.7188C63.2812 62.5828 62.5828 63.2812 61.7188 63.2812Z" fill="#27AE60"/>
<path d="M45.3125 49.2188H40.625C39.7609 49.2188 39.0625 48.5203 39.0625 47.6562C39.0625 46.7922 39.7609 46.0938 40.625 46.0938H45.3125C46.1766 46.0938 46.875 46.7922 46.875 47.6562C46.875 48.5203 46.1766 49.2188 45.3125 49.2188Z" fill="#27AE60"/>
<path d="M38.2812 51.5625C37.4172 51.5625 36.7188 50.8641 36.7188 50C36.7188 47.8453 38.4703 46.0938 40.625 46.0938C41.4891 46.0938 42.1875 46.7922 42.1875 47.6562C42.1875 48.5203 41.4891 49.2188 40.625 49.2188C40.1953 49.2188 39.8438 49.5703 39.8438 50C39.8438 50.8641 39.1453 51.5625 38.2812 51.5625Z" fill="#27AE60"/>
<path d="M38.2812 58.5938C37.4172 58.5938 36.7188 57.8953 36.7188 57.0312C36.7188 54.8766 38.4703 53.125 40.625 53.125C41.4891 53.125 42.1875 53.8234 42.1875 54.6875C42.1875 55.5516 41.4891 56.25 40.625 56.25C40.1953 56.25 39.8438 56.6016 39.8438 57.0312C39.8438 57.8953 39.1453 58.5938 38.2812 58.5938Z" fill="#27AE60"/>
<path d="M45.3125 56.25H40.625C39.7609 56.25 39.0625 55.5516 39.0625 54.6875C39.0625 53.8234 39.7609 53.125 40.625 53.125H45.3125C46.1766 53.125 46.875 53.8234 46.875 54.6875C46.875 55.5516 46.1766 56.25 45.3125 56.25Z" fill="#27AE60"/>
<path d="M45.3125 56.25C44.4484 56.25 43.75 55.5516 43.75 54.6875C43.75 53.8234 44.4484 53.125 45.3125 53.125C45.7422 53.125 46.0938 52.7734 46.0938 52.3438C46.0938 51.4797 46.7922 50.7812 47.6562 50.7812C48.5203 50.7812 49.2188 51.4797 49.2188 52.3438C49.2188 54.4984 47.4672 56.25 45.3125 56.25Z" fill="#27AE60"/>
<path d="M47.6562 53.9062C46.7922 53.9062 46.0938 53.2078 46.0938 52.3438V50C46.0938 49.1359 46.7922 48.4375 47.6562 48.4375C48.5203 48.4375 49.2188 49.1359 49.2188 50V52.3438C49.2188 53.2078 48.5203 53.9062 47.6562 53.9062Z" fill="#27AE60"/>
<path d="M47.6562 51.5625C46.7922 51.5625 46.0938 50.8641 46.0938 50C46.0938 49.5703 45.7422 49.2188 45.3125 49.2188C44.4484 49.2188 43.75 48.5203 43.75 47.6562C43.75 46.7922 44.4484 46.0938 45.3125 46.0938C47.4672 46.0938 49.2188 47.8453 49.2188 50C49.2188 50.8641 48.5203 51.5625 47.6562 51.5625Z" fill="#27AE60"/>
<path d="M64.6157 81.2531C63.8344 81.2531 63.1594 80.6688 63.0657 79.875C62.9641 79.0172 63.5766 78.2406 64.4329 78.1391C70.0735 77.4688 74.3282 72.6813 74.3282 67C74.3282 66.1359 75.0266 65.4375 75.8907 65.4375C76.7548 65.4375 77.4532 66.1359 77.4532 67C77.4532 74.2625 72.0141 80.3859 64.8016 81.2422C64.7407 81.25 64.6782 81.2531 64.6157 81.2531Z" fill="#27AE60"/>
<path d="M59.9297 85.7859C56.825 85.7859 53.6797 83.6906 53.6797 79.6891C53.6797 75.6875 56.825 73.5938 59.9297 73.5938C63.0344 73.5938 66.1797 75.6875 66.1797 79.6891C66.1797 83.6906 63.0359 85.7859 59.9297 85.7859ZM59.9297 76.7188C58.4875 76.7188 56.8047 77.4969 56.8047 79.6891C56.8047 81.8813 58.4875 82.6609 59.9297 82.6609C61.3719 82.6609 63.0547 81.8813 63.0547 79.6891C63.0547 77.4969 61.3719 76.7188 59.9297 76.7188Z" fill="#27AE60"/>
<path d="M75.8906 43.9406C75.0266 43.9406 74.3281 43.2422 74.3281 42.3781V41.5156C74.3281 28.3281 63.1875 17.1875 50 17.1875C36.8125 17.1875 25.6719 28.3281 25.6719 41.5156V42.3781C25.6719 43.2422 24.9734 43.9406 24.1094 43.9406C23.2453 43.9406 22.5469 43.2422 22.5469 42.3781V41.5156C22.5469 26.6344 35.1188 14.0625 50 14.0625C64.8813 14.0625 77.4531 26.6344 77.4531 41.5156V42.3781C77.4531 43.2422 76.7547 43.9406 75.8906 43.9406Z" fill="#27AE60"/>
<path d="M71.2031 69.4219C70.3391 69.4219 69.6406 68.7234 69.6406 67.8594C69.6406 66.9953 70.3391 66.2969 71.2031 66.2969C77.6047 66.2969 82.8125 61.0891 82.8125 54.6875C82.8125 53.8234 83.5109 53.125 84.375 53.125C85.2391 53.125 85.9375 53.8234 85.9375 54.6875C85.9375 62.8109 79.3281 69.4219 71.2031 69.4219Z" fill="#27AE60"/>
<path d="M84.375 56.25C83.5109 56.25 82.8125 55.5516 82.8125 54.6875C82.8125 48.2859 77.6047 43.0781 71.2031 43.0781C70.3391 43.0781 69.6406 42.3797 69.6406 41.5156C69.6406 40.6516 70.3391 39.9531 71.2031 39.9531C79.3266 39.9531 85.9375 46.5625 85.9375 54.6875C85.9375 55.5516 85.2391 56.25 84.375 56.25Z" fill="#27AE60"/>
<path d="M71.2031 69.4219C70.3391 69.4219 69.6406 68.7234 69.6406 67.8594V41.5156C69.6406 40.6516 70.3391 39.9531 71.2031 39.9531C72.0672 39.9531 72.7656 40.6516 72.7656 41.5156V67.8594C72.7656 68.7219 72.0672 69.4219 71.2031 69.4219Z" fill="#27AE60"/>
<path d="M28.7969 69.4219C20.6719 69.4219 14.0625 62.8109 14.0625 54.6875C14.0625 53.8234 14.7609 53.125 15.625 53.125C16.4891 53.125 17.1875 53.8234 17.1875 54.6875C17.1875 61.0891 22.3953 66.2969 28.7969 66.2969C29.6609 66.2969 30.3594 66.9953 30.3594 67.8594C30.3594 68.7234 29.6594 69.4219 28.7969 69.4219Z" fill="#27AE60"/>
<path d="M15.625 56.25C14.7609 56.25 14.0625 55.5516 14.0625 54.6875C14.0625 46.5641 20.6719 39.9531 28.7969 39.9531C29.6609 39.9531 30.3594 40.6516 30.3594 41.5156C30.3594 42.3797 29.6609 43.0781 28.7969 43.0781C22.3953 43.0781 17.1875 48.2859 17.1875 54.6875C17.1875 55.5516 16.4891 56.25 15.625 56.25Z" fill="#27AE60"/>
<path d="M28.7969 69.4219C27.9328 69.4219 27.2344 68.7234 27.2344 67.8594V41.5156C27.2344 40.6516 27.9328 39.9531 28.7969 39.9531C29.6609 39.9531 30.3594 40.6516 30.3594 41.5156V67.8594C30.3594 68.7219 29.6594 69.4219 28.7969 69.4219Z" fill="#27AE60"/>
</svg>
